<svg width="150" height="48" viewBox="0 0 150 48" fill="none" xmlns="http://www.w3.org/2000/svg">
<path fill-rule="evenodd" clip-rule="evenodd" d="M149.534 0V14.208L148.792 14.9541C146.12 17.6371 144.647 21.1188 144.647 24.7539C144.647 28.389 146.12 31.8707 148.792 34.5537L149.534 35.2998V48H58.5335V43.1285L64.2082 37.0733V42.7931H143.86V37.2793C140.699 33.7522 138.972 29.344 138.972 24.7539C138.972 20.1638 140.699 15.7556 143.86 12.2284V5.20544H67.319V0H149.534ZM8.37295 16.118C7.74862 16.7418 7.2854 17.4879 6.96317 18.3647L6.96007 18.3689C6.76177 18.8635 6.61924 19.358 6.51544 19.8526C6.41939 20.3471 6.37291 20.8942 6.37291 21.501C6.37291 22.1078 6.42094 22.6549 6.51544 23.1495C6.61924 23.644 6.76177 24.1386 6.96007 24.6331C7.30089 25.5099 7.77341 26.256 8.36985 26.8628C8.9756 27.4611 9.69443 27.9385 10.545 28.2938C11.3877 28.6406 12.3142 28.8139 13.3165 28.8139C14.3188 28.8139 15.2174 28.6491 15.9935 28.3279C16.7774 27.9982 17.4219 27.5222 17.9037 26.8884C18.3948 26.2631 18.7078 25.5341 18.8302 24.7013H25.0735C24.9046 26.5231 24.3175 28.119 23.3244 29.4989C22.3314 30.8873 20.9789 31.9716 19.2484 32.7532C17.5273 33.5419 15.5133 33.9327 13.205 33.9327C11.2948 33.9327 9.51627 33.63 7.8803 33.0047C6.24433 32.388 4.83454 31.5126 3.65249 30.3757C2.47974 29.2474 1.58119 27.903 0.975447 26.3498C0.701236 25.5866 0.501388 24.8065 0.369704 24.0078C0.228726 23.2092 0.162109 22.3764 0.162109 21.4996C0.162109 20.9184 0.189995 20.3457 0.238021 19.7986C0.286047 19.2429 0.371253 18.7043 0.493641 18.1757C0.61603 17.6541 0.777148 17.1426 0.975447 16.648C1.58119 15.0948 2.47974 13.7504 3.65249 12.6136C4.83609 11.4852 6.25362 10.6098 7.91903 9.98455C9.58444 9.36922 11.4001 9.0651 13.3583 9.0651C15.6574 9.0651 17.6899 9.43885 19.4591 10.1934C21.219 10.948 22.618 12.0238 23.6591 13.4293C24.7001 14.8347 25.295 16.4576 25.4469 18.2965H19.1942C19.0718 17.4637 18.7496 16.7347 18.2198 16.1009C17.7008 15.477 17.0191 14.9996 16.2058 14.6699C15.3832 14.3487 14.3886 14.1839 13.3583 14.1839C12.3281 14.1839 11.4001 14.3572 10.5682 14.6869C9.72542 15.0251 8.99728 15.5026 8.37295 16.118ZM27.1618 9.90639H32.9311V33.2889H27.1618V9.90639ZM42.6896 9.90639H36.6647V14.2535H42.6896V9.90639ZM36.7778 16.5784H42.5471V33.2889H36.7778V16.5784ZM58.4482 39.7364L64.2082 33.5902V16.5784H58.4482L59.8766 21.0292H59.1113C58.7612 19.9705 58.298 19.0766 57.7108 18.3476C57.1252 17.6186 56.4157 17.0559 55.6008 16.6651C54.7781 16.2657 53.8517 16.0753 52.8215 16.0753C51.5728 16.0753 50.4279 16.3183 49.3869 16.8129C48.3474 17.3074 47.5046 18.0009 46.871 18.9033C46.4836 19.4149 46.1521 19.9961 45.8965 20.6214C45.6409 21.2452 45.4426 21.9316 45.2923 22.6606C45.1405 23.3882 45.0739 24.1357 45.0739 24.8988C45.0739 25.7316 45.1405 26.5118 45.2923 27.2408C45.4426 27.9698 45.6409 28.6462 45.8965 29.263C46.1521 29.8783 46.4836 30.451 46.871 30.9626C47.5046 31.892 48.3474 32.594 49.3869 33.0715C50.4279 33.5575 51.5728 33.8005 52.8215 33.8005C53.8517 33.8005 54.7781 33.6101 55.6008 33.2278C56.4157 32.8455 57.1252 32.2913 57.7108 31.5538C58.298 30.8248 58.7612 29.9309 59.1113 28.8807H59.8766L58.4482 33.2889V39.7364ZM58.4111 26.0783C58.3537 26.4436 58.2685 26.7732 58.1368 27.0759C57.9943 27.3801 57.8239 27.6401 57.5977 27.8661C57.2848 28.335 56.8696 28.6903 56.3676 28.9077C55.8657 29.1322 55.308 29.2459 54.6929 29.2459C54.0779 29.2459 53.4923 29.1408 52.9904 28.9248C52.49 28.7159 52.0639 28.3691 51.7231 27.9002C51.4303 27.5449 51.2041 27.1115 51.0616 26.6169C50.9098 26.1224 50.8431 25.5497 50.8431 24.8988C50.8431 24.5421 50.8726 24.1783 50.9283 23.806C50.995 23.4323 51.0988 23.0941 51.2413 22.7985C51.3931 22.4958 51.5527 22.2172 51.7231 21.9657C52.0639 21.5238 52.49 21.1855 52.9904 20.9766C53.4923 20.7606 54.0593 20.6555 54.6929 20.6555C55.3266 20.6555 55.8657 20.7606 56.3676 20.9766C56.8696 21.1855 57.2848 21.5238 57.5977 21.9657C57.9184 22.3309 58.1461 22.7644 58.2778 23.2674C58.4111 23.7705 58.4777 24.3176 58.4777 24.8988C58.4777 25.3237 58.4575 25.7231 58.4111 26.0783ZM75.0605 27.3275L73.0264 29.4278V33.2889H67.2943V9.90639H73.0651V21.8705L71.6274 24.2565H72.3648L79.7515 16.5784H85.9189L78.7492 24.1002L85.7392 33.2889H79.42L75.0605 27.3275ZM103.994 24.8988C103.994 23.06 103.644 21.4712 102.953 20.1524C102.252 18.8251 101.241 17.8105 99.9161 17.1156C98.5915 16.4221 97.002 16.0739 95.1399 16.0739C94.0895 16.0739 93.0965 16.2046 92.17 16.4562C91.2343 16.7162 90.3915 17.09 89.6355 17.566C88.8702 18.052 88.235 18.6503 87.7253 19.3708C87.3287 19.8483 87.0065 20.3684 86.7509 20.9582C86.4859 21.5394 86.2876 22.1732 86.1451 22.8582C85.9933 23.5431 85.9189 24.2466 85.9189 24.9671C85.9189 26.1124 86.0708 27.1541 86.3636 28.0821C86.6564 29.0186 87.0731 29.8428 87.6122 30.5633C88.1514 31.2568 88.8036 31.8479 89.5797 32.334C90.3466 32.8114 91.2157 33.1752 92.1902 33.4268C93.1553 33.6698 94.215 33.8005 95.3676 33.8005C96.9091 33.8005 98.2817 33.5575 99.4916 33.0715C100.712 32.594 101.724 31.9261 102.528 31.0678C103.332 30.218 103.833 29.2289 104.032 28.1005V28.0664H98.3003V28.1005C98.1577 28.4828 97.9315 28.804 97.6387 29.064C97.3459 29.3241 97.0051 29.5145 96.6178 29.6538C96.2212 29.7845 95.7657 29.8527 95.2561 29.8527C94.5465 29.8527 93.9501 29.7575 93.4683 29.5486C92.9958 29.3497 92.5976 29.02 92.2769 28.5766C91.9361 28.1261 91.7006 27.6046 91.5767 27.0234C91.5286 26.7974 91.4915 26.5459 91.4729 26.2858H103.997V24.8974L103.994 24.8988ZM91.4992 23.0514C91.5472 22.7558 91.6123 22.4873 91.7068 22.2357C91.8385 21.8805 92.0182 21.5678 92.2366 21.2992C92.5868 20.8658 92.9927 20.5361 93.4667 20.3016C93.9485 20.0671 94.5078 19.9464 95.1414 19.9464C96.2476 19.9464 97.0717 20.2149 97.6202 20.7535C98.1686 21.2921 98.4614 22.0467 98.528 23.0528H91.5008L91.4992 23.0514ZM108.892 16.5784V14.0787L114.624 11.7538V16.5784H118.696V20.7862H114.624V27.3971C114.624 28.0224 114.795 28.4771 115.013 28.8281C115.754 30.0204 118.226 29.8044 118.226 29.8044V29.8229L117.735 30.3473L114.576 33.7181C113.647 33.6115 112.832 33.3955 112.127 33.0715C111.078 32.594 110.274 31.8735 109.726 30.937C109.177 29.9906 108.892 28.8466 108.892 27.4923V20.7862H105.156V16.5784H108.892ZM119.401 27.9002V28.065C119.401 28.2299 119.407 28.3919 119.418 28.551C119.487 29.5401 119.777 30.397 120.299 31.1374C120.896 31.9872 121.774 32.6466 122.937 33.1056C124.101 33.566 125.511 33.8005 127.147 33.8005C128.547 33.8005 129.768 33.6357 130.826 33.306C131.876 32.9848 132.747 32.5073 133.427 31.8749C133.749 31.5623 134.014 31.2326 134.222 30.9029C134.431 30.5647 134.591 30.1824 134.696 29.7575C134.809 29.3241 134.865 28.8978 134.865 28.4729C134.865 27.5108 134.676 26.6766 134.316 25.9831C133.948 25.2797 133.362 24.7169 132.549 24.2736C131.745 23.8401 130.676 23.4934 129.351 23.2504L126.967 22.7473C126.522 22.6336 126.154 22.5128 125.842 22.3906C125.539 22.2698 125.322 22.105 125.199 21.9046C125.075 21.6971 125.02 21.4882 125.02 21.2637C125.02 21.1074 125.038 20.9425 125.094 20.7692C125.142 20.6043 125.227 20.4736 125.35 20.3869C125.568 20.178 125.824 20.0401 126.116 19.962C126.409 19.8838 126.778 19.8483 127.223 19.8483C128.056 19.8483 128.69 20.0231 129.134 20.3869C129.568 20.7422 129.796 21.2452 129.796 21.9046V22.0012H135.083V21.8705C135.083 20.6725 134.78 19.6408 134.185 18.764C133.579 17.8886 132.708 17.2292 131.556 16.7773C130.402 16.3269 129.029 16.1009 127.441 16.1009C126.022 16.1009 124.773 16.2657 123.695 16.5954C122.617 16.9166 121.746 17.3941 121.085 18.0265C120.772 18.2965 120.507 18.5992 120.299 18.9374C120.092 19.2756 119.921 19.6579 119.799 20.0828C119.675 20.5077 119.619 20.9511 119.619 21.393C119.619 22.7644 120.025 23.8572 120.829 24.6814C121.185 25.0481 121.628 25.365 122.152 25.6335C122.806 25.9689 123.59 26.229 124.499 26.4166L127.63 27.0248C128.045 27.1115 128.386 27.2323 128.67 27.3801C128.955 27.5278 129.153 27.6927 129.275 27.8831C129.398 28.0735 129.464 28.308 129.464 28.5766C129.464 28.7514 129.436 28.9248 129.37 29.0811C129.314 29.2374 129.209 29.3838 129.058 29.5145C128.888 29.6794 128.642 29.8002 128.319 29.8868C128.008 29.9735 127.63 30.0261 127.185 30.0261C126.4 30.0261 125.785 29.8527 125.35 29.5145C124.905 29.1848 124.688 28.6988 124.688 28.065V27.9002H119.401Z" fill="#1500FF"/>
</svg>
